#!OML:ASF E:\Mandelcareful walks\Project 1\Capture day 1\Session 1\Subject1.ASF
:FULLY-SPECIFIED
:DEGREES
917
root -27.0574 16.4255 -3.00659 6.56825 116.307 1.08269
lowerback -2.70047 2.38241 -1.11992
upperback 1.85193 3.19916 1.39797
thorax 3.2766 1.55824 2.2385
lowerneck -8.62573 17.0342 14.1469
upperneck 20.0739 24.7722 -10.9014
head 11.0253 11.7531 -2.39298
rclavicle -1.64991e-014 7.55382e-015
rhumerus -35.1415 -9.05663 -72.8505
rradius 32.9855
rwrist -12.8709
rhand -15.4754 -27.0278
rfingers 7.12502
rthumb 10.7062 -56.7351
lclavicle -1.64991e-014 7.55382e-015
lhumerus -32.88 -0.603138 90.243
lradius 34.2134
lwrist 12.1228
lhand -20.7359 -15.7077
lfingers 7.12502
lthumb 5.6293 14.1975
rfemur -9.42746 -3.25727 20.5838
rtibia 26.6503
rfoot -27.8403 -23.7717
rtoes 12.7943
lfemur -15.1468 -4.87981 -8.68767
ltibia 30.213
lfoot -19.9815 21.3581
ltoes -5.38519
918
root -27.0689 16.4372 -3.02332 6.54121 116.394 0.857331
lowerback -2.90527 2.29355 -1.18669
upperback 1.73774 3.08334 1.38053
thorax 3.27682 1.49901 2.25826
lowerneck -8.70043 17.052 14.2176
upperneck 20.1695 24.8218 -10.9751
head 11.1024 11.768 -2.4044
rclavicle 2.52457e-014 -7.95139e-015
rhumerus -35.0465 -8.83018 -73.2629
rradius 33.472
rwrist -13.3211
rhand -15.5709 -27.3377
rfingers 7.12502
rthumb 10.6141 -57.0497
lclavicle 2.52457e-014 -7.95139e-015
lhumerus -32.7889 -0.460223 90.2709
lradius 33.8263
lwrist 11.51
lhand -20.7019 -15.8296
lfingers 7.12502
lthumb 5.6622 14.0747
rfemur -9.56208 -3.02844 20.4611
rtibia 26.5287
rfoot -27.7256 -24.1892
rtoes 12.6605
lfemur -15.3569 -4.82581 -8.84994
ltibia 30.1512
lfoot -19.6389 21.5247
ltoes -6.54645
919
root -27.0735 16.4312 -3.05194 6.08333 116.413 0.607913
lowerback -2.89443 2.23682 -1.19772
upperback 1.77689 3.00898 1.34209
thorax 3.31606 1.46132 2.22165
lowerneck -8.50754 17.0768 14.2613
upperneck 19.8722 24.872 -11.1696
head 10.9995 11.7939 -2.48685
rclavicle 1.11121e-013 4.29375e-014
rhumerus -35.0496 -8.68483 -73.7024
rradius 34.0075
rwrist -13.7733
rhand -15.4047 -27.4197
rfingers 7.12502
rthumb 10.7744 -57.1233
lclavicle 1.11121e-013 4.29375e-014
lhumerus -32.6583 -0.408551 90.2289
lradius 33.3866
lwrist 11.0772
lhand -20.9897 -15.8504
lfingers 7.12502
lthumb 5.38428 14.0612
rfemur -9.23156 -2.66608 20.2587
rtibia 26.4963
rfoot -27.8444 -24.5612
rtoes 12.6825
lfemur -15.0176 -5.14289 -9.14801
ltibia 30.0037
lfoot -19.5438 22.0967
ltoes -8.02066
920
root -27.079 16.4267 -3.08006 5.76737 116.465 0.44995
lowerback -2.95037 2.21852 -1.14662
upperback 1.81421 2.98452 1.26342
thorax 3.39396 1.44974 2.11462
lowerneck -8.22536 17.1035 14.2422
upperneck 19.3539 24.8768 -11.3072
head 10.7761 11.8087 -2.5676
rclavicle -2.29099e-014 1.03368e-014
rhumerus -35.147 -8.70419 -74.2387
rradius 34.5259
rwrist -14.1627
rhand -15.4047 -27.3288
rfingers 7.12502
rthumb 10.7744 -57.0324
lclavicle -2.29099e-014 1.03368e-014
lhumerus -32.5395 -0.631917 90.1272
lradius 33.0555
lwrist 10.8138
lhand -21.4534 -15.6384
lfingers 7.12502
lthumb 4.93659 14.2841
rfemur -9.01743 -2.54937 20.1063
rtibia 26.5545
rfoot -27.9184 -24.7978
rtoes 12.1885
lfemur -14.6873 -5.70519 -9.38786
ltibia 29.8127
lfoot -19.7395 22.7562
ltoes -8.32357
921
root -27.0948 16.4328 -3.09871 5.74802 116.826 0.202783
lowerback -3.14372 2.10578 -1.21124
upperback 1.69584 2.83797 1.20477
thorax 3.38686 1.37571 2.08752
lowerneck -8.45055 17.0893 14.0773
upperneck 19.6152 24.8147 -10.9918
head 10.8338 11.7799 -2.43381
rclavicle 1.66979e-014 0
rhumerus -35.3323 -8.3715 -74.8743
rradius 35.1777
rwrist -14.78
rhand -15.6195 -27.6091
rfingers 7.12502
rthumb 10.5672 -57.3234
lclavicle 1.66979e-014 0
lhumerus -32.3635 -0.82584 90.0608
lradius 32.6892
lwrist 10.7048
lhand -22.05 -15.3849
lfingers 7.12502
lthumb 4.36045 14.5502
rfemur -9.2374 -2.65775 19.9441
rtibia 26.6144
rfoot -28.0155 -25.0719
rtoes 11.6792
lfemur -14.9447 -5.91479 -9.60885
ltibia 29.6444
lfoot -19.3735 23.1205
ltoes -8.73886
922
root -27.105 16.4309 -3.13111 5.34145 116.85 -0.177693
lowerback -3.19824 2.09902 -1.28947
upperback 1.68284 2.83373 1.15433
thorax 3.40317 1.37187 2.0811
lowerneck -8.57588 17.0485 13.9296
upperneck 19.6805 24.7886 -11.0124
head 10.8602 11.7518 -2.41584
rclavicle 2.98177e-014 -7.15625e-015
rhumerus -35.5596 -7.64997 -75.5104
rradius 35.9466
rwrist -15.6481
rhand -15.685 -27.841
rfingers 7.12502
rthumb 10.504 -57.5586
lclavicle 2.98177e-014 -7.15625e-015
lhumerus -32.1408 -0.798957 89.9581
lradius 32.2197
lwrist 10.5997
lhand -21.9619 -15.531
lfingers 7.12502
lthumb 4.44552 14.4024
rfemur -9.14514 -2.63635 19.6067
rtibia 26.6136
rfoot -28.0278 -25.1131
rtoes 11.1568
lfemur -14.8134 -6.02169 -10.0128
ltibia 29.5229
lfoot -19.0813 23.5457
ltoes -9.99958
923
root -27.1199 16.4344 -3.16067 5.17325 116.929 -0.337618
lowerback -3.22585 2.0638 -1.31878
upperback 1.64559 2.7884 1.13143
thorax 3.38197 1.34912 2.07147
lowerneck -8.54969 17.0346 14.0316
upperneck 19.6422 24.8515 -11.3267
head 10.9119 11.7643 -2.51766
rclavicle 5.4964e-014 -5.56597e-015
rhumerus -35.6956 -6.87837 -76.1922
rradius 36.5463
rwrist -16.3194
rhand -15.633 -27.7274
rfingers 7.12502
rthumb 10.5542 -57.4424
lclavicle 5.4964e-014 -5.56597e-015
lhumerus -31.9327 -0.669288 89.7321
lradius 31.7572
lwrist 10.3342
lhand -21.5467 -15.9383
lfingers 7.12502
lthumb 4.84644 13.9863
rfemur -9.05869 -2.30154 19.4366
rtibia 26.5504
rfoot -28.2091 -25.4863
rtoes 11.1045
lfemur -14.7174 -6.65162 -10.2149
ltibia 29.4638
lfoot -19.6175 23.5427
ltoes -10.7775
924
root -27.1362 16.4401 -3.1898 5.1314 116.957 -0.400773
lowerback -3.30959 2.07738 -1.35966
upperback 1.62397 2.80936 1.10919
thorax 3.40513 1.35846 2.07568
lowerneck -8.69741 17.0457 14.0422
upperneck 19.7813 24.8691 -11.2967
head 10.9896 11.7643 -2.48819
rclavicle -3.598e-014 1.98785e-015
rhumerus -35.8236 -6.05374 -76.9257
rradius 37.0778
rwrist -16.8601
rhand -15.4728 -27.5195
rfingers 7.12502
rthumb 10.7087 -57.2266
lclavicle -3.598e-014 1.98785e-015
lhumerus -31.6467 -0.717455 89.5316
lradius 31.338
lwrist 10.1368
lhand -21.6759 -15.9954
lfingers 7.12502
lthumb 4.72173 13.9319
rfemur -8.98502 -1.48131 19.3498
rtibia 26.4583
rfoot -28.8556 -26.0185
rtoes 12.1807
lfemur -14.6265 -7.37629 -10.2975
ltibia 29.466
lfoot -20.7469 23.1209
ltoes -9.50066
925
root -27.1515 16.4365 -3.22201 5.03341 116.921 -0.522199
lowerback -3.41302 2.12542 -1.40832
upperback 1.59596 2.87748 1.06304
thorax 3.43151 1.39124 2.06313
lowerneck -8.70932 17.0242 14.009
upperneck 19.7746 24.8081 -11.1932
head 10.9604 11.7431 -2.4632
rclavicle 1.18774e-014 7.95139e-015
rhumerus -36.0096 -5.11492 -77.6931
rradius 37.5273
rwrist -17.3091
rhand -15.5603 -27.2889
rfingers 7.12502
rthumb 10.6243 -57.0004
lclavicle 1.18774e-014 7.95139e-015
lhumerus -31.3558 -0.708418 89.2999
lradius 30.9431
lwrist 9.99421
lhand -21.8224 -15.9128
lfingers 7.12502
lthumb 4.5803 14.0177
rfemur -8.88595 -0.963147 19.1733
rtibia 26.3048
rfoot -29.3893 -26.115
rtoes 12.6663
lfemur -14.6136 -7.49395 -10.4481
ltibia 29.5429
lfoot -21.3432 22.8934
ltoes -7.58378
926
root -27.1666 16.4297 -3.2553 4.92711 116.931 -0.677739
lowerback -3.49431 2.13707 -1.46859
upperback 1.54104 2.89665 1.04208
thorax 3.41788 1.39987 2.07842
lowerneck -8.52979 17.0075 14.0005
upperneck 19.5366 24.8175 -11.374
head 10.8676 11.7486 -2.54078
rclavicle 4.84041e-014 -3.97569e-016
rhumerus -36.1646 -4.19652 -78.3772
rradius 37.8365
rwrist -17.4649
rhand -15.7769 -26.6428
rfingers 7.12502
rthumb 10.4154 -56.3648
lclavicle 4.84041e-014 -3.97569e-016
lhumerus -31.0842 -0.370172 89.0112
lradius 30.5626
lwrist 9.76146
lhand -21.8453 -15.9941
lfingers 7.12502
lthumb 4.55811 13.9369
rfemur -8.87064 -1.03234 18.9271
rtibia 26.1717
rfoot -29.3259 -26.01
rtoes 11.5031
lfemur -14.6716 -7.76102 -10.65
ltibia 29.6086
lfoot -21.5344 23.5704
ltoes -5.97368
